<?xml version="1.0" encoding="utf-8"?>
<!-- Generator: Adobe Illustrator 27.5.0, SVG Export Plug-In . SVG Version: 6.00 Build 0)  -->
<svg version="1.1" xmlns="http://www.w3.org/2000/svg" xmlns:xlink="http://www.w3.org/1999/xlink" x="0px" y="0px"
	 viewBox="0 0 750 500" style="enable-background:new 0 0 750 500;" xml:space="preserve">
<g id="BACKGROUND">
	<rect x="-0.001" style="fill:#FFFFFF;" width="750" height="500"/>
</g>
<g id="OBJECTS">
	<g>
		<defs>
			<rect id="SVGID_1_" x="-0.001" width="750" height="500"/>
		</defs>
		<clipPath id="SVGID_00000180368442719936138420000010230217990046318986_">
			<use xlink:href="#SVGID_1_"  style="overflow:visible;"/>
		</clipPath>
		<path style="clip-path:url(#SVGID_00000180368442719936138420000010230217990046318986_);fill:#FFD9B4;" d="M-143.709,240.507
			c19.507-23.801,42.657-45.312,71.702-57.149c49.529-20.185,101.935-14.429,154.005-14.627
			c101.077-0.384,248.165-60.908,272.108-177.63c8.343-40.671,1.591-78.391,1.591-78.391c-9.556,3.983-19.834,39.454-22.302,47.454
			c-6.541,21.202-12.167,42.07-23.065,61.608C288.672,60.596,255.3,88.203,209.647,86.875c-43.8-1.274-83.783-21.434-125.273-33.463
			C32.263,38.304-25.192,29.751-75.588,54.894c-32.151,16.04-63.827,44.061-88.088,70.247c-11.97,12.92-28.23,30.021-31.975,47.856
			c-4.603,21.92,0.075,52.032,0.065,73.496"/>
		<path style="clip-path:url(#SVGID_00000180368442719936138420000010230217990046318986_);fill:#FFD9B4;" d="M236.89,597.002
			c32.543,5.553,73.718-17.975,101.325-31.746c47.467-23.677,64.399-60.688,94.781-100.457
			c41.551-54.39,84.155-106.741,141.918-144.609c22.9-15.012,48.947-26.145,76.544-28.022c30.693-2.087,57.189,12.355,86.582,18.108
			c30.415,5.953,61.726,6.783,92.622,5.462c21.11-0.903,45.211-9.056,65.758-7.232c-14.136,25.339-27.477,47.216-36.99,75.339
			c-6.764,19.995-10.658,40.593-15.635,61.05c-7.342,30.177-19.515,63.308-17.53,94.874c2.104,33.45,25.609,60.612,14.809,95.492
			c-14.21,45.894-72.867,88.526-118.783,97.572c-22.978,4.527-48.506,4.586-70.087-5.125
			c-24.062-10.828-45.038-26.195-70.095-35.299c-46.849-17.021-94.242-7.288-142.842-9.465
			c-51.143-2.291-88.123-21.372-134.674-38.986c-17.514-6.627-33.394-13.654-50.151-21.992
			c-13.879-6.906-35.856-11.753-46.551-23.211"/>
		<g style="clip-path:url(#SVGID_00000180368442719936138420000010230217990046318986_);">
			<path style="fill:#DF5B3F;" d="M-28.976,8.353c-11.425,11.183,15.892,28.275,16.993,36.605s-25.141-9.45-29.474,6.674
				c-4.332,16.124,22.73,15.291,31.845,21.297c9.116,6.006-23.472,5.651-22.692,20.85c0.781,15.199,36.344,24.576,70.94,0.792
				c34.596-23.784,35.586-62.017,19.168-69.014C41.386,18.56,39.218,46.134,34.58,44.848c-4.638-1.286,0.572-32.252-14.013-35.676
				C5.983,5.749,11.159,31.432,6.815,32.811C2.472,34.19-13.235-7.053-28.976,8.353z"/>
			<path style="fill:none;stroke:#793954;stroke-width:2;stroke-linecap:round;stroke-linejoin:round;stroke-miterlimit:10;" d="
				M-21.972,14.772c0,0,36.551,41.098,64.39,94.487"/>
			<path style="fill:none;stroke:#793954;stroke-width:2;stroke-linecap:round;stroke-linejoin:round;stroke-miterlimit:10;" d="
				M-31.53,55.211c0,0,18.825,9.249,46.538,9.423"/>
			<path style="fill:none;stroke:#793954;stroke-width:2;stroke-linecap:round;stroke-linejoin:round;stroke-miterlimit:10;" d="
				M-17.419,91.775c0,0,22.518,6.863,47.079-5.203"/>
			<path style="fill:none;stroke:#793954;stroke-width:2;stroke-linecap:round;stroke-linejoin:round;stroke-miterlimit:10;" d="
				M26.763,79.879c0,0,19.175-15.247,24.163-38.456"/>
			<path style="fill:none;stroke:#793954;stroke-width:2;stroke-linecap:round;stroke-linejoin:round;stroke-miterlimit:10;" d="
				M8.835,54.347c0,0,11.258-12.034,9.868-31.122"/>
		</g>
		<g style="clip-path:url(#SVGID_00000180368442719936138420000010230217990046318986_);">
			<path style="fill:#EE824E;" d="M-1.678,342.367c0,0-31.957-69.683,83.345-75.914C64.982,371.712-1.678,342.367-1.678,342.367z"/>
			<path style="fill:none;stroke:#793954;stroke-width:2;stroke-linecap:round;stroke-linejoin:round;stroke-miterlimit:10;" d="
				M62.021,281.947c0,0-51.782,43.928-82.934,83.695"/>
			<path style="fill:none;stroke:#793954;stroke-width:2;stroke-linecap:round;stroke-linejoin:round;stroke-miterlimit:10;" d="
				M16.225,297.297c0,0-9.484,14.726-5.559,33.037"/>
			<path style="fill:none;stroke:#793954;stroke-width:2;stroke-linecap:round;stroke-linejoin:round;stroke-miterlimit:10;" d="
				M25.341,316.728c0,0,16.71,5.865,29.534,0.501"/>
			<path style="fill:none;stroke:#793954;stroke-width:2;stroke-linecap:round;stroke-linejoin:round;stroke-miterlimit:10;" d="
				M42.342,298.592c0,0-2.134-8.7,3.701-16.483"/>
		</g>
		<g style="clip-path:url(#SVGID_00000180368442719936138420000010230217990046318986_);">
			<path style="fill:#EE824E;" d="M648.397-7.384c0,0,66.09-3.225,34.055,91.152C603.48,36.598,648.397-7.384,648.397-7.384z"/>
			<path style="fill:none;stroke:#793954;stroke-width:2;stroke-linecap:round;stroke-linejoin:round;stroke-miterlimit:10;" d="
				M676.347,63.053c0,0-18.565-55.592-40.421-93.321"/>
			<path style="fill:none;stroke:#793954;stroke-width:2;stroke-linecap:round;stroke-linejoin:round;stroke-miterlimit:10;" d="
				M678.756,21.432c0,0-8.752-12.327-24.683-15.062"/>
			<path style="fill:none;stroke:#793954;stroke-width:2;stroke-linecap:round;stroke-linejoin:round;stroke-miterlimit:10;" d="
				M660.261,22.496c0,0-10.065,11.504-9.885,23.501"/>
			<path style="fill:none;stroke:#793954;stroke-width:2;stroke-linecap:round;stroke-linejoin:round;stroke-miterlimit:10;" d="
				M669.331,41.941c0,0,7.656,1.084,12.017,8.259"/>
		</g>
		<g style="clip-path:url(#SVGID_00000180368442719936138420000010230217990046318986_);">
			<path style="fill:#EE824E;" d="M-5.588,146.215c0,0-34.152-54.623,61.265-72.26C53.131,163.476-5.588,146.215-5.588,146.215z"/>
			<path style="fill:none;stroke:#793954;stroke-width:2;stroke-linecap:round;stroke-linejoin:round;stroke-miterlimit:10;" d="
				M40.976,88.988c0,0-38.412,42.197-60.082,78.699"/>
			<path style="fill:none;stroke:#793954;stroke-width:2;stroke-linecap:round;stroke-linejoin:round;stroke-miterlimit:10;" d="
				M4.467,106.723c0,0-6.314,13.296-1.067,28.132"/>
			<path style="fill:none;stroke:#793954;stroke-width:2;stroke-linecap:round;stroke-linejoin:round;stroke-miterlimit:10;" d="
				M14.162,121.932c0,0,14.558,3.084,24.667-2.77"/>
			<path style="fill:none;stroke:#793954;stroke-width:2;stroke-linecap:round;stroke-linejoin:round;stroke-miterlimit:10;" d="
				M26.373,104.983c0,0-2.717-7.02,1.306-14.136"/>
		</g>
		<g style="clip-path:url(#SVGID_00000180368442719936138420000010230217990046318986_);">
			<path style="fill:#DF5B3F;" d="M680.207,306.066c-10.629,12.854,19.587,27.595,21.642,36.117s-27.12-7.05-29.849,10.154
				s25.258,13.375,35.374,18.607c10.116,5.233-23.734,8.435-21.259,24.119c2.475,15.684,40.401,21.516,73.69-6.951
				c33.289-28.468,30.126-68.245,12.325-73.705c-17.801-5.461-17.029,23.385-21.982,22.56c-4.953-0.826-2.941-33.526-18.448-35.48
				c-15.507-1.954-7.323,24.126-11.678,26.033S694.85,288.357,680.207,306.066z"/>
			<path style="fill:none;stroke:#793954;stroke-width:2;stroke-linecap:round;stroke-linejoin:round;stroke-miterlimit:10;" d="
				M688.176,311.959c0,0,42.427,38.635,77.161,90.978"/>
			<path style="fill:none;stroke:#793954;stroke-width:2;stroke-linecap:round;stroke-linejoin:round;stroke-miterlimit:10;" d="
				M682.691,354.963c0,0,20.545,7.533,49.317,4.677"/>
			<path style="fill:none;stroke:#793954;stroke-width:2;stroke-linecap:round;stroke-linejoin:round;stroke-miterlimit:10;" d="
				M701.338,391.353c0,0,24.115,4.653,48.277-10.557"/>
			<path style="fill:none;stroke:#793954;stroke-width:2;stroke-linecap:round;stroke-linejoin:round;stroke-miterlimit:10;" d="
				M745.875,374.169c0,0,18.224-17.92,20.856-42.547"/>
			<path style="fill:none;stroke:#793954;stroke-width:2;stroke-linecap:round;stroke-linejoin:round;stroke-miterlimit:10;" d="
				M724.477,349.643c0,0,10.362-13.719,6.828-33.371"/>
		</g>
		<g style="clip-path:url(#SVGID_00000180368442719936138420000010230217990046318986_);">
			<path style="fill:#DF5B3F;" d="M431.281,72.817c14.295-4.878-2.029-30.577,0.427-38.127c2.456-7.549,17.582,18.298,27.844,6.318
				c10.262-11.98-13.147-22.295-18.471-31.128c-5.324-8.833,22.311,4.745,27.838-8.53c5.526-13.275-20.97-35.756-60.15-29.575
				s-55.6,38.37-44.455,51.023c11.145,12.653,24.226-9.969,27.656-6.983s-13.626,27.261-2.588,36.121
				c11.038,8.86,17.089-15.142,21.353-14.549C414.998,37.982,411.586,79.538,431.281,72.817z"/>
			<path style="fill:none;stroke:#793954;stroke-width:2;stroke-linecap:round;stroke-linejoin:round;stroke-miterlimit:10;" d="
				M427.926,64.492c0,0-14.416-49.924-16.398-106.777"/>
			<path style="fill:none;stroke:#793954;stroke-width:2;stroke-linecap:round;stroke-linejoin:round;stroke-miterlimit:10;" d="
				M452.547,33.914c0,0-12.28-15.553-35.833-26.992"/>
			<path style="fill:none;stroke:#793954;stroke-width:2;stroke-linecap:round;stroke-linejoin:round;stroke-miterlimit:10;" d="
				M455.414-3.004c0,0-16.4-15.023-42.253-14.744"/>
			<path style="fill:none;stroke:#793954;stroke-width:2;stroke-linecap:round;stroke-linejoin:round;stroke-miterlimit:10;" d="
				M412.905-10.862c0,0-22.557,5.185-36.264,22.938"/>
			<path style="fill:none;stroke:#793954;stroke-width:2;stroke-linecap:round;stroke-linejoin:round;stroke-miterlimit:10;" d="
				M417.785,18.206c0,0-14.499,5.672-21.09,22.51"/>
		</g>
		<g style="clip-path:url(#SVGID_00000180368442719936138420000010230217990046318986_);">
			<path style="fill:#EE824E;" d="M781.516,385.919c0,0,24.915,59.408-72.097,61.456
				C726.34,359.432,781.516,385.919,781.516,385.919z"/>
			<path style="fill:none;stroke:#793954;stroke-width:2;stroke-linecap:round;stroke-linejoin:round;stroke-miterlimit:10;" d="
				M726.347,434.905c0,0,44.703-35.464,71.966-68.003"/>
			<path style="fill:none;stroke:#793954;stroke-width:2;stroke-linecap:round;stroke-linejoin:round;stroke-miterlimit:10;" d="
				M765.235,423.278c0,0,8.372-12.106,5.581-27.593"/>
			<path style="fill:none;stroke:#793954;stroke-width:2;stroke-linecap:round;stroke-linejoin:round;stroke-miterlimit:10;" d="
				M758.115,406.706c0,0-13.872-5.387-24.791-1.236"/>
			<path style="fill:none;stroke:#793954;stroke-width:2;stroke-linecap:round;stroke-linejoin:round;stroke-miterlimit:10;" d="
				M743.335,421.469c0,0,1.552,7.366-3.564,13.742"/>
		</g>
		<g style="clip-path:url(#SVGID_00000180368442719936138420000010230217990046318986_);">
			<path style="fill:#FFA854;" d="M145.627,338.682c-8.602-15.127-34.169,8.886-43.242,7.734s16.919-23.842,1.15-32.874
				c-15.77-9.032-22.399,19.684-31.249,27.613s0.562-26.274-15.653-29.667s-35.948,31.438-20.508,74.449
				s55.408,54.656,67.326,39.316c11.919-15.341-16.503-25.27-13.864-29.795s33.789,9.547,41.438-4.855
				c7.648-14.402-20.82-16.077-21.067-21.031C109.71,364.617,157.477,359.523,145.627,338.682z"/>
			<path style="fill:none;stroke:#793954;stroke-width:2;stroke-linecap:round;stroke-linejoin:round;stroke-miterlimit:10;" d="
				M136.928,344.273c0,0-53.395,27.074-117.312,41.57"/>
			<path style="fill:none;stroke:#793954;stroke-width:2;stroke-linecap:round;stroke-linejoin:round;stroke-miterlimit:10;" d="
				M97.014,322.997c0,0-14.956,17.25-22.826,46.371"/>
			<path style="fill:none;stroke:#793954;stroke-width:2;stroke-linecap:round;stroke-linejoin:round;stroke-miterlimit:10;" d="
				M54.614,327.71c0,0-13.468,21.798-7.581,50.997"/>
			<path style="fill:none;stroke:#793954;stroke-width:2;stroke-linecap:round;stroke-linejoin:round;stroke-miterlimit:10;" d="
				M54.882,377.513c0,0,10.73,24.412,33.776,36.099"/>
			<path style="fill:none;stroke:#793954;stroke-width:2;stroke-linecap:round;stroke-linejoin:round;stroke-miterlimit:10;" d="
				M86.729,365.725c0,0,9.544,15.187,30.021,19.018"/>
		</g>
		<g style="clip-path:url(#SVGID_00000180368442719936138420000010230217990046318986_);">
			<path style="fill:#FFA854;" d="M721.635,101.55c-16.021,6.793,4.871,34.968,2.677,43.847c-2.195,8.879-21.723-19.565-32.52-4.947
				c-10.797,14.618,16.959,24.527,23.81,34.235c6.852,9.708-26.032-3.599-31.28,12.114c-5.248,15.713,27.066,39.345,71.575,28.988
				c44.509-10.357,60.702-48.709,46.844-62.323c-13.858-13.614-27.01,13.467-31.199,10.322c-4.189-3.146,13.394-32.457-0.026-41.721
				c-13.42-9.264-18.379,18.819-23.328,18.491C743.239,140.228,743.708,92.192,721.635,101.55z"/>
			<path style="fill:none;stroke:#793954;stroke-width:2;stroke-linecap:round;stroke-linejoin:round;stroke-miterlimit:10;" d="
				M726.182,110.838c0,0,20.712,56.17,27.712,121.335"/>
			<path style="fill:none;stroke:#793954;stroke-width:2;stroke-linecap:round;stroke-linejoin:round;stroke-miterlimit:10;" d="
				M700.43,148.021c0,0,15.403,16.852,43.417,28.039"/>
			<path style="fill:none;stroke:#793954;stroke-width:2;stroke-linecap:round;stroke-linejoin:round;stroke-miterlimit:10;" d="
				M700.202,190.681c0,0,20.093,15.901,49.777,13.433"/>
			<path style="fill:none;stroke:#793954;stroke-width:2;stroke-linecap:round;stroke-linejoin:round;stroke-miterlimit:10;" d="
				M749.702,196.18c0,0,25.49-7.832,39.766-29.371"/>
			<path style="fill:none;stroke:#793954;stroke-width:2;stroke-linecap:round;stroke-linejoin:round;stroke-miterlimit:10;" d="
				M741.679,163.183c0,0,16.19-7.722,22.365-27.618"/>
		</g>
		<g style="clip-path:url(#SVGID_00000180368442719936138420000010230217990046318986_);">
			<path style="fill:#A9463F;" d="M255.34,529.818c0,0-50.879-8.979-21.948-80.807C289.259,493.903,255.34,529.818,255.34,529.818z"
				/>
			<path style="fill:none;stroke:#793954;stroke-width:2;stroke-linecap:round;stroke-linejoin:round;stroke-miterlimit:10;" d="
				M235.926,458.839c0,0,8.724,49.433,22.617,81.42"/>
			
				<polyline style="fill:none;stroke:#793954;stroke-width:2;stroke-linecap:round;stroke-linejoin:round;stroke-miterlimit:10;" points="
				230.544,471.723 239.127,475.327 245.992,467.26 			"/>
			
				<polyline style="fill:none;stroke:#793954;stroke-width:2;stroke-linecap:round;stroke-linejoin:round;stroke-miterlimit:10;" points="
				228.485,484.081 243.246,490.603 252.858,477.387 			"/>
			
				<polyline style="fill:none;stroke:#793954;stroke-width:2;stroke-linecap:round;stroke-linejoin:round;stroke-miterlimit:10;" points="
				230.201,499.529 246.85,505.193 257.664,489.059 			"/>
			
				<polyline style="fill:none;stroke:#793954;stroke-width:2;stroke-linecap:round;stroke-linejoin:round;stroke-miterlimit:10;" points="
				237.067,513.432 251.485,519.611 261.097,503.477 			"/>
		</g>
		<g style="clip-path:url(#SVGID_00000180368442719936138420000010230217990046318986_);">
			<path style="fill:#A9463F;" d="M155.188,305.275c0,0,2.196,26.298-37.05,21.37C133.03,293.203,155.188,305.275,155.188,305.275z"
				/>
			<path style="fill:none;stroke:#793954;stroke-width:2;stroke-linecap:round;stroke-linejoin:round;stroke-miterlimit:10;" d="
				M122.662,324.112c0,0,23.278-10.75,37.265-21.78"/>
			
				<polyline style="fill:none;stroke:#793954;stroke-width:2;stroke-linecap:round;stroke-linejoin:round;stroke-miterlimit:10;" points="
				129.727,325.091 130.389,320.383 125.509,318.043 			"/>
			
				<polyline style="fill:none;stroke:#793954;stroke-width:2;stroke-linecap:round;stroke-linejoin:round;stroke-miterlimit:10;" points="
				136.099,324.498 137.396,316.358 129.616,313.333 			"/>
			
				<polyline style="fill:none;stroke:#793954;stroke-width:2;stroke-linecap:round;stroke-linejoin:round;stroke-miterlimit:10;" points="
				143.505,321.637 144.132,312.676 134.755,309.438 			"/>
			
				<polyline style="fill:none;stroke:#793954;stroke-width:2;stroke-linecap:round;stroke-linejoin:round;stroke-miterlimit:10;" points="
				149.476,316.435 150.649,308.509 141.428,305.864 			"/>
		</g>
		<g style="clip-path:url(#SVGID_00000180368442719936138420000010230217990046318986_);">
			<path style="fill:#A9463F;" d="M640.015,326.336c0,0-32.649,14.851-44.311-37.628
				C645.318,292.453,640.015,326.336,640.015,326.336z"/>
			<path style="fill:none;stroke:#793954;stroke-width:2;stroke-linecap:round;stroke-linejoin:round;stroke-miterlimit:10;" d="
				M601.016,293.338c0,0,24.415,24.867,44.935,37.716"/>
			
				<polyline style="fill:none;stroke:#793954;stroke-width:2;stroke-linecap:round;stroke-linejoin:round;stroke-miterlimit:10;" points="
				602.997,302.827 609.326,301.518 610.086,294.203 			"/>
			
				<polyline style="fill:none;stroke:#793954;stroke-width:2;stroke-linecap:round;stroke-linejoin:round;stroke-miterlimit:10;" points="
				606.674,310.709 617.685,308.643 617.994,297.302 			"/>
			
				<polyline style="fill:none;stroke:#793954;stroke-width:2;stroke-linecap:round;stroke-linejoin:round;stroke-miterlimit:10;" points="
				613.726,318.877 625.481,315.577 625.331,302.094 			"/>
			
				<polyline style="fill:none;stroke:#793954;stroke-width:2;stroke-linecap:round;stroke-linejoin:round;stroke-miterlimit:10;" points="
				623.118,324.137 633.798,322.009 632.961,308.997 			"/>
		</g>
		<g style="clip-path:url(#SVGID_00000180368442719936138420000010230217990046318986_);">
			<path style="fill:#A9463F;" d="M701.03-12.684c0,0,47.542,0.125,32.628,69.804C675.936,25.219,701.03-12.684,701.03-12.684z"/>
			<path style="fill:none;stroke:#793954;stroke-width:2;stroke-linecap:round;stroke-linejoin:round;stroke-miterlimit:10;" d="
				M729.812,48.608c0,0-15.696-43.443-33.33-70.253"/>
			
				<polyline style="fill:none;stroke:#793954;stroke-width:2;stroke-linecap:round;stroke-linejoin:round;stroke-miterlimit:10;" points="
				732.661,36.08 724.313,34.164 719.359,42.559 			"/>
			
				<polyline style="fill:none;stroke:#793954;stroke-width:2;stroke-linecap:round;stroke-linejoin:round;stroke-miterlimit:10;" points="
				732.582,24.551 718.172,20.963 711.539,34.459 			"/>
			
				<polyline style="fill:none;stroke:#793954;stroke-width:2;stroke-linecap:round;stroke-linejoin:round;stroke-miterlimit:10;" points="
				728.592,10.816 712.605,8.304 705.343,24.635 			"/>
			
				<polyline style="fill:none;stroke:#793954;stroke-width:2;stroke-linecap:round;stroke-linejoin:round;stroke-miterlimit:10;" points="
				720.177,-0.707 706.133,-4.038 699.96,12.104 			"/>
		</g>
		<g style="clip-path:url(#SVGID_00000180368442719936138420000010230217990046318986_);">
			<path style="fill:#FFA854;" d="M137.509,293.226c0,0-19.535,24.952-50.073-11.427
				C127.851,264.507,137.509,293.226,137.509,293.226z"/>
			<path style="fill:none;stroke:#793954;stroke-width:2;stroke-linecap:round;stroke-linejoin:round;stroke-miterlimit:10;" d="
				M93.488,283.263c0,0,29.275,9.536,50.597,11.242"/>
			
				<polyline style="fill:none;stroke:#793954;stroke-width:2;stroke-linecap:round;stroke-linejoin:round;stroke-miterlimit:10;" points="
				98.909,289.892 103.336,286.286 100.949,280.242 			"/>
			
				<polyline style="fill:none;stroke:#793954;stroke-width:2;stroke-linecap:round;stroke-linejoin:round;stroke-miterlimit:10;" points="
				105.005,294.571 112.793,288.462 108.411,279.447 			"/>
			
				<polyline style="fill:none;stroke:#793954;stroke-width:2;stroke-linecap:round;stroke-linejoin:round;stroke-miterlimit:10;" points="
				113.862,298.098 121.73,290.719 116.116,280.212 			"/>
			
				<polyline style="fill:none;stroke:#793954;stroke-width:2;stroke-linecap:round;stroke-linejoin:round;stroke-miterlimit:10;" points="
				123.368,298.392 130.872,292.369 124.91,282.512 			"/>
		</g>
		<g style="clip-path:url(#SVGID_00000180368442719936138420000010230217990046318986_);">
			<path style="fill:#DF5B3F;" d="M173.658,516.77c0,0-53.727-54.689,43.118-116.531C245.581,502.612,173.658,516.77,173.658,516.77
				z"/>
			<path style="fill:none;stroke:#793954;stroke-width:2;stroke-linecap:round;stroke-linejoin:round;stroke-miterlimit:10;" d="
				M211.367,414.296c0,0-32.059,67.234-42.838,117.847"/>
			
				<polyline style="fill:none;stroke:#793954;stroke-width:2;stroke-linecap:round;stroke-linejoin:round;stroke-miterlimit:10;" points="
				193.764,425.222 201.026,436.972 216.272,433.143 			"/>
			
				<polyline style="fill:none;stroke:#793954;stroke-width:2;stroke-linecap:round;stroke-linejoin:round;stroke-miterlimit:10;" points="
				180.627,438.377 192.839,458.976 215.839,451.293 			"/>
			
				<polyline style="fill:none;stroke:#793954;stroke-width:2;stroke-linecap:round;stroke-linejoin:round;stroke-miterlimit:10;" points="
				169.389,458.517 184.621,479.707 211.588,469.534 			"/>
			
				<polyline style="fill:none;stroke:#793954;stroke-width:2;stroke-linecap:round;stroke-linejoin:round;stroke-miterlimit:10;" points="
				165.703,481.229 177.796,501.118 203.311,489.91 			"/>
		</g>
		<g style="clip-path:url(#SVGID_00000180368442719936138420000010230217990046318986_);">
			<path style="fill:#A9463F;" d="M36.352-16.556c0,0,29.245-11.13,36.505,35.205C29.866,12.652,36.352-16.556,36.352-16.556z"/>
			<path style="fill:none;stroke:#793954;stroke-width:2;stroke-linecap:round;stroke-linejoin:round;stroke-miterlimit:10;" d="
				M68.487,14.324c0,0-19.886-22.997-37.043-35.315"/>
			
				<polyline style="fill:none;stroke:#793954;stroke-width:2;stroke-linecap:round;stroke-linejoin:round;stroke-miterlimit:10;" points="
				67.285,5.954 61.703,6.745 60.638,13.071 			"/>
			
				<polyline style="fill:none;stroke:#793954;stroke-width:2;stroke-linecap:round;stroke-linejoin:round;stroke-miterlimit:10;" points="
				64.519,-1.112 54.818,0.08 53.923,9.937 			"/>
			
				<polyline style="fill:none;stroke:#793954;stroke-width:2;stroke-linecap:round;stroke-linejoin:round;stroke-miterlimit:10;" points="
				58.829,-8.612 48.413,-6.387 47.8,5.36 			"/>
			
				<polyline style="fill:none;stroke:#793954;stroke-width:2;stroke-linecap:round;stroke-linejoin:round;stroke-miterlimit:10;" points="
				50.942,-13.71 41.526,-12.446 41.538,-1.071 			"/>
		</g>
		<g style="clip-path:url(#SVGID_00000180368442719936138420000010230217990046318986_);">
			<path style="fill:#A9463F;" d="M-7.16,430.595c0,0-35.284-37.992,31.362-77.962C41.732,422.389-7.16,430.595-7.16,430.595z"/>
			<path style="fill:none;stroke:#793954;stroke-width:2;stroke-linecap:round;stroke-linejoin:round;stroke-miterlimit:10;" d="
				M20.278,362.033c0,0-22.949,44.846-31.197,78.858"/>
			
				<polyline style="fill:none;stroke:#793954;stroke-width:2;stroke-linecap:round;stroke-linejoin:round;stroke-miterlimit:10;" points="
				8.171,369.086 12.857,377.167 23.236,374.868 			"/>
			
				<polyline style="fill:none;stroke:#793954;stroke-width:2;stroke-linecap:round;stroke-linejoin:round;stroke-miterlimit:10;" points="
				-0.961,377.73 6.904,391.888 22.6,387.13 			"/>
			
				<polyline style="fill:none;stroke:#793954;stroke-width:2;stroke-linecap:round;stroke-linejoin:round;stroke-miterlimit:10;" points="
				-8.94,391.133 0.955,405.747 19.379,399.381 			"/>
			
				<polyline style="fill:none;stroke:#793954;stroke-width:2;stroke-linecap:round;stroke-linejoin:round;stroke-miterlimit:10;" points="
				-11.864,406.417 -4.066,420.092 13.396,412.999 			"/>
		</g>
		<g style="clip-path:url(#SVGID_00000180368442719936138420000010230217990046318986_);">
			<path style="fill:#EE824E;" d="M165.589-12.322c0,0,44.026-10.743,46.139,57.147C151.024,28.487,165.589-12.322,165.589-12.322z"
				/>
			<path style="fill:none;stroke:#793954;stroke-width:2;stroke-linecap:round;stroke-linejoin:round;stroke-miterlimit:10;" d="
				M206.225,37.826c0,0-24.449-36.619-46.892-57.403"/>
			
				<polyline style="fill:none;stroke:#793954;stroke-width:2;stroke-linecap:round;stroke-linejoin:round;stroke-miterlimit:10;" points="
				206.001,25.581 197.837,25.715 195.17,34.616 			"/>
			
				<polyline style="fill:none;stroke:#793954;stroke-width:2;stroke-linecap:round;stroke-linejoin:round;stroke-miterlimit:10;" points="
				203.294,14.93 189.138,14.901 186.083,28.906 			"/>
			
				<polyline style="fill:none;stroke:#793954;stroke-width:2;stroke-linecap:round;stroke-linejoin:round;stroke-miterlimit:10;" points="
				196.464,3.13 181.096,4.457 178.105,21.229 			"/>
			
				<polyline style="fill:none;stroke:#793954;stroke-width:2;stroke-linecap:round;stroke-linejoin:round;stroke-miterlimit:10;" points="
				186.045,-5.612 172.286,-5.486 170.261,10.862 			"/>
		</g>
		<g style="clip-path:url(#SVGID_00000180368442719936138420000010230217990046318986_);">
			<path style="fill:#EE824E;" d="M-49.472,484.149c0,0-7.141-96.927,137.21-77.367C31.694,529.403-49.472,484.149-49.472,484.149z"
				/>
			<path style="fill:none;stroke:#793954;stroke-width:2;stroke-linecap:round;stroke-linejoin:round;stroke-miterlimit:10;" d="
				M70.986,415.944c0,0-86.11,38.753-138.017,78.87"/>
			
				<polyline style="fill:none;stroke:#793954;stroke-width:2;stroke-linecap:round;stroke-linejoin:round;stroke-miterlimit:10;" points="
				45.006,412.085 42.4,429.401 60.283,438.192 			"/>
			
				<polyline style="fill:none;stroke:#793954;stroke-width:2;stroke-linecap:round;stroke-linejoin:round;stroke-miterlimit:10;" points="
				21.519,414.04 16.447,443.972 44.99,455.392 			"/>
			
				<polyline style="fill:none;stroke:#793954;stroke-width:2;stroke-linecap:round;stroke-linejoin:round;stroke-miterlimit:10;" points="
				-5.857,424.31 -8.492,457.288 25.927,469.55 			"/>
			
				<polyline style="fill:none;stroke:#793954;stroke-width:2;stroke-linecap:round;stroke-linejoin:round;stroke-miterlimit:10;" points="
				-28.037,443.255 -32.641,472.402 1.222,482.473 			"/>
		</g>
		<g style="clip-path:url(#SVGID_00000180368442719936138420000010230217990046318986_);">
			<path style="fill:#FFA854;" d="M258.939,412.379c0,0-2.638,21.395-26.377,24.325c4.689-20.515,20.222-26.963,20.222-26.963
				s-31.066,3.81-36.048-27.256c27.549,0.293,38.1,22.274,38.1,22.274s-16.999-26.084,3.517-44.841
				c19.343,21.981,4.103,44.548,4.103,44.548s13.775-24.618,34.876-23.446c-8.206,32.825-32.238,25.791-32.238,25.791
				s17.585,7.327,19.05,24.911C265.68,429.378,258.939,412.379,258.939,412.379z"/>
			<path style="fill:none;stroke:#793954;stroke-width:2;stroke-linecap:round;stroke-linejoin:round;stroke-miterlimit:10;" d="
				M258.833,377.458c0,0.838-3.631,41.333,5.585,58.927"/>
		</g>
		<g style="clip-path:url(#SVGID_00000180368442719936138420000010230217990046318986_);">
			<path style="fill:#A9463F;" d="M85.066,479.677c0,0,13.245,24.09-9.112,44.843c-10.467-24.712,0.779-42.975,0.779-42.975
				s-29.276,27.132-57.62-1.269c28.703-20.264,56.022-5.414,56.022-5.414s-37.049-14.279-29.84-48.988
				c36.409,8.286,37.5,42.996,37.5,42.996s-4.137-35.738,18.556-50.279c16.021,40.065-14.078,50.734-14.078,50.734
				s23.651-5.552,38.295,11.535C104.726,492.22,85.066,479.677,85.066,479.677z"/>
			<path style="fill:none;stroke:#793954;stroke-width:2;stroke-linecap:round;stroke-linejoin:round;stroke-miterlimit:10;" d="
				M58.885,443.65c0.625,0.866,27.104,45.446,49.768,56.757"/>
		</g>
		<g style="clip-path:url(#SVGID_00000180368442719936138420000010230217990046318986_);">
			<path style="fill:#EE824E;" d="M478.101,505.484c0,0-67.927,35.537-80.146-79.285
				C503.94,437.388,478.101,505.484,478.101,505.484z"/>
			<path style="fill:none;stroke:#793954;stroke-width:2;stroke-linecap:round;stroke-linejoin:round;stroke-miterlimit:10;" d="
				M414.45,445.013c0,0,46.562,49.427,87.895,78.468"/>
			<path style="fill:none;stroke:#793954;stroke-width:2;stroke-linecap:round;stroke-linejoin:round;stroke-miterlimit:10;" d="
				M432.162,489.949c0,0,15.199,8.705,33.281,3.833"/>
			<path style="fill:none;stroke:#793954;stroke-width:2;stroke-linecap:round;stroke-linejoin:round;stroke-miterlimit:10;" d="
				M451.092,479.835c0,0,4.988-16.992-1.036-29.52"/>
			<path style="fill:none;stroke:#793954;stroke-width:2;stroke-linecap:round;stroke-linejoin:round;stroke-miterlimit:10;" d="
				M432.097,463.8c0,0-8.577,2.583-16.654-2.839"/>
		</g>
		<g style="clip-path:url(#SVGID_00000180368442719936138420000010230217990046318986_);">
			<path style="fill:#FFA854;" d="M522.706,358.534c-19.271,3.661-2.976,39.686-7.513,48.945
				c-4.536,9.259-19.264-26.738-34.647-13.209c-15.382,13.529,12.832,31.067,18.064,43.397c5.232,12.33-27.821-10.176-37.351,5.882
				s20.431,49.804,71.938,49.013s78.497-39.179,66.478-57.484c-12.019-18.305-32.97,8.393-36.835,3.928
				c-3.865-4.465,22.5-32.562,9.925-45.97c-12.574-13.408-24.738,16.348-30.112,14.806
				C537.279,406.299,549.256,353.49,522.706,358.534z"/>
			<path style="fill:none;stroke:#793954;stroke-width:2;stroke-linecap:round;stroke-linejoin:round;stroke-miterlimit:10;" d="
				M525.499,369.851c0,0,9.417,66.824,1.58,140.286"/>
			<path style="fill:none;stroke:#793954;stroke-width:2;stroke-linecap:round;stroke-linejoin:round;stroke-miterlimit:10;" d="
				M488.257,404.671c0,0,12.948,22.241,41.142,41.25"/>
			<path style="fill:none;stroke:#793954;stroke-width:2;stroke-linecap:round;stroke-linejoin:round;stroke-miterlimit:10;" d="
				M477.828,451.615c0,0,18.342,22.312,51.634,26.675"/>
			<path style="fill:none;stroke:#793954;stroke-width:2;stroke-linecap:round;stroke-linejoin:round;stroke-miterlimit:10;" d="
				M531.05,469.483c0,0,29.951-2.547,50.817-22.87"/>
			<path style="fill:none;stroke:#793954;stroke-width:2;stroke-linecap:round;stroke-linejoin:round;stroke-miterlimit:10;" d="
				M530.084,431.216c0,0,19.679-4.645,31.229-25.09"/>
		</g>
		<g style="clip-path:url(#SVGID_00000180368442719936138420000010230217990046318986_);">
			<path style="fill:#A9463F;" d="M583.455,516.346c0,0-36.106,37.212-79.488-27.265
				C572.717,467.947,583.455,516.346,583.455,516.346z"/>
			<path style="fill:none;stroke:#793954;stroke-width:2;stroke-linecap:round;stroke-linejoin:round;stroke-miterlimit:10;" d="
				M513.559,492.51c0,0,45.978,20.586,80.373,27.054"/>
			
				<polyline style="fill:none;stroke:#793954;stroke-width:2;stroke-linecap:round;stroke-linejoin:round;stroke-miterlimit:10;" points="
				521.232,504.235 529.058,499.135 526.222,488.889 			"/>
			
				<polyline style="fill:none;stroke:#793954;stroke-width:2;stroke-linecap:round;stroke-linejoin:round;stroke-miterlimit:10;" points="
				530.338,512.904 544.068,504.314 538.5,488.887 			"/>
			
				<polyline style="fill:none;stroke:#793954;stroke-width:2;stroke-linecap:round;stroke-linejoin:round;stroke-miterlimit:10;" points="
				544.138,520.176 558.218,509.534 550.903,491.466 			"/>
			
				<polyline style="fill:none;stroke:#793954;stroke-width:2;stroke-linecap:round;stroke-linejoin:round;stroke-miterlimit:10;" points="
				559.554,522.3 572.805,513.802 564.813,496.732 			"/>
		</g>
		<g style="clip-path:url(#SVGID_00000180368442719936138420000010230217990046318986_);">
			<path style="fill:#A9463F;" d="M475.329-34.335c0,0,31.844,40.918-38.027,74.938C425.908-30.414,475.329-34.335,475.329-34.335z"
				/>
			<path style="fill:none;stroke:#793954;stroke-width:2;stroke-linecap:round;stroke-linejoin:round;stroke-miterlimit:10;" d="
				M442.028,31.58c0,0,26.764-42.679,37.941-75.844"/>
			
				<polyline style="fill:none;stroke:#793954;stroke-width:2;stroke-linecap:round;stroke-linejoin:round;stroke-miterlimit:10;" points="
				454.704,25.607 450.739,17.149 440.198,18.536 			"/>
			
				<polyline style="fill:none;stroke:#793954;stroke-width:2;stroke-linecap:round;stroke-linejoin:round;stroke-miterlimit:10;" points="
				464.553,17.791 457.949,3.002 441.9,6.376 			"/>
			
				<polyline style="fill:none;stroke:#793954;stroke-width:2;stroke-linecap:round;stroke-linejoin:round;stroke-miterlimit:10;" points="
				473.668,5.133 465.082,-10.287 446.174,-5.549 			"/>
			
				<polyline style="fill:none;stroke:#793954;stroke-width:2;stroke-linecap:round;stroke-linejoin:round;stroke-miterlimit:10;" points="
				477.91,-9.839 471.332,-24.141 453.319,-18.594 			"/>
		</g>
		<g style="clip-path:url(#SVGID_00000180368442719936138420000010230217990046318986_);">
			<path style="fill:#EE824E;" d="M639.136,555.815c0,0-96.425,12.172-84.399-133.001
				C680.108,472.405,639.136,555.815,639.136,555.815z"/>
			<path style="fill:none;stroke:#793954;stroke-width:2;stroke-linecap:round;stroke-linejoin:round;stroke-miterlimit:10;" d="
				M564.759,439.067c0,0,43.179,83.979,85.941,133.728"/>
			
				<polyline style="fill:none;stroke:#793954;stroke-width:2;stroke-linecap:round;stroke-linejoin:round;stroke-miterlimit:10;" points="
				562.256,465.213 579.684,466.915 587.534,448.599 			"/>
			
				<polyline style="fill:none;stroke:#793954;stroke-width:2;stroke-linecap:round;stroke-linejoin:round;stroke-miterlimit:10;" points="
				565.431,488.567 595.586,492.075 605.506,462.977 			"/>
			
				<polyline style="fill:none;stroke:#793954;stroke-width:2;stroke-linecap:round;stroke-linejoin:round;stroke-miterlimit:10;" points="
				577.11,515.372 610.18,516.287 620.636,481.277 			"/>
			
				<polyline style="fill:none;stroke:#793954;stroke-width:2;stroke-linecap:round;stroke-linejoin:round;stroke-miterlimit:10;" points="
				597.183,536.536 626.53,539.618 634.826,505.277 			"/>
		</g>
		<g style="clip-path:url(#SVGID_00000180368442719936138420000010230217990046318986_);">
			<path style="fill:#FFA854;" d="M652.902-28.596c0,0,36.204,75.673-85.983,105.318C573.432-39.464,652.902-28.596,652.902-28.596z
				"/>
			<path style="fill:none;stroke:#793954;stroke-width:2;stroke-linecap:round;stroke-linejoin:round;stroke-miterlimit:10;" d="
				M577.505,64.091c0,0,57.042-58.217,86.16-106.779"/>
			
				<polyline style="fill:none;stroke:#793954;stroke-width:2;stroke-linecap:round;stroke-linejoin:round;stroke-miterlimit:10;" points="
				599.603,59.028 596.256,44.289 579.117,42.843 			"/>
			
				<polyline style="fill:none;stroke:#793954;stroke-width:2;stroke-linecap:round;stroke-linejoin:round;stroke-miterlimit:10;" points="
				617.869,50.074 612.539,24.419 586.005,24.21 			"/>
			
				<polyline style="fill:none;stroke:#793954;stroke-width:2;stroke-linecap:round;stroke-linejoin:round;stroke-miterlimit:10;" points="
				636.649,33.215 628.401,5.877 596.879,6.837 			"/>
			
				<polyline style="fill:none;stroke:#793954;stroke-width:2;stroke-linecap:round;stroke-linejoin:round;stroke-miterlimit:10;" points="
				648.524,11.014 643.064,-13.863 612.677,-11.316 			"/>
		</g>
		<g style="clip-path:url(#SVGID_00000180368442719936138420000010230217990046318986_);">
			<path style="fill:#EE824E;" d="M577.544-3.779c0,0-2.776,36.018-54.734,20.787C550.237-24.931,577.544-3.779,577.544-3.779z"/>
			<path style="fill:none;stroke:#793954;stroke-width:2;stroke-linecap:round;stroke-linejoin:round;stroke-miterlimit:10;" d="
				M529.477,14.574c0,0,33.804-9.444,55.114-21.295"/>
			
				<polyline style="fill:none;stroke:#793954;stroke-width:2;stroke-linecap:round;stroke-linejoin:round;stroke-miterlimit:10;" points="
				538.809,17.44 540.732,11.222 534.649,6.995 			"/>
			
				<polyline style="fill:none;stroke:#793954;stroke-width:2;stroke-linecap:round;stroke-linejoin:round;stroke-miterlimit:10;" points="
				547.549,18.03 551.081,7.313 541.228,1.526 			"/>
			
				<polyline style="fill:none;stroke:#793954;stroke-width:2;stroke-linecap:round;stroke-linejoin:round;stroke-miterlimit:10;" points="
				558.182,15.781 560.987,3.809 549.022,-2.615 			"/>
			
				<polyline style="fill:none;stroke:#793954;stroke-width:2;stroke-linecap:round;stroke-linejoin:round;stroke-miterlimit:10;" points="
				567.388,10.055 570.704,-0.4 558.821,-5.988 			"/>
		</g>
		<g style="clip-path:url(#SVGID_00000180368442719936138420000010230217990046318986_);">
			<path style="fill:#A9463F;" d="M655.162,494.957c0,0-18.001,31.74-57.019,20.924c20.639-29.034,49.107-29.04,49.107-29.04
				s-51.044-14.194-38.683-65.998c42.883,18.328,45.122,59.539,45.122,59.539s-9.658-51.808,34.584-67.828
				c15.985,46.914-22.48,72.312-22.48,72.312s37.505-29.556,69.737-14.036c-34.122,45.999-67.134,19.413-67.134,19.413
				s22.741,22.862,13.626,51.306C654.675,525.907,655.162,494.957,655.162,494.957z"/>
			<path style="fill:none;stroke:#793954;stroke-width:2;stroke-linecap:round;stroke-linejoin:round;stroke-miterlimit:10;" d="
				M677.647,440.288c-0.543,1.31-32.487,62.269-29.49,95.756"/>
		</g>
		<g style="clip-path:url(#SVGID_00000180368442719936138420000010230217990046318986_);">
			<path style="fill:#FFA854;" d="M116.443,14.935c0,0-24.085-21.733-7.188-53.518c21.23,23.502,15.756,48.213,15.756,48.213
				s22.143-41.573,64.729-20.875c-24.161,33.695-60.362,27.707-60.362,27.707s46.827,1.587,52.218,43.072
				c-43.797,4.847-58.44-33.429-58.44-33.429s18.437,38.242-1.238,63.232c-33.359-38.47-3.93-62.007-3.93-62.007
				s-24.22,15.339-47.155,1.954C89.673,8.556,116.443,14.935,116.443,14.935z"/>
			<path style="fill:none;stroke:#793954;stroke-width:2;stroke-linecap:round;stroke-linejoin:round;stroke-miterlimit:10;" d="
				M159.568,44.973c-1.033-0.724-47.797-40.182-77.44-44.025"/>
		</g>
		<g style="clip-path:url(#SVGID_00000180368442719936138420000010230217990046318986_);">
			<g>
				<path style="fill:#A9463F;" d="M56.196,194.512c0,0-8.895,6.01-12.986-3.029c-8.029-17.736,22.113-39.172,35.735-35.133
					c9.402,2.788,8.948,11.789,2.579,18.681"/>
				<path style="fill:#EE824E;" d="M92.94,201.819c-1.461,4.519-4.769,7.982-10.664,9.188
					c-19.579,4.006-31.725-20.502-31.725-20.502s1.459-1.936,3.928-4.712c5.511-6.205,16.048-16.6,26.574-18.935
					C88.834,172.967,96.544,190.628,92.94,201.819z"/>
				<path style="fill:#A9463F;" d="M54.277,168.869c0,0-11.946-12.086-2.408-22.168c2.928,2.115,3.86,3.39,3.86,3.39
					s-5.926,7.785,1.319,18.478"/>
			</g>
			<path style="fill:#DF5B3F;" d="M92.94,201.819c-1.461,4.519-4.769,7.982-10.664,9.188c-19.579,4.006-31.725-20.502-31.725-20.502
				s1.459-1.936,3.928-4.712C60.058,191.577,73.371,202.641,92.94,201.819z"/>
		</g>
		<g style="clip-path:url(#SVGID_00000180368442719936138420000010230217990046318986_);">
			<g>
				<path style="fill:#A9463F;" d="M577.102,340.124c0,0,7.881,3.428,9.778-4.284c3.724-15.135-23.138-27.596-33.268-22.423
					c-6.992,3.57-5.317,10.588,0.704,15.081"/>
				<path style="fill:#EE824E;" d="M549.25,351.252c1.811,3.344,4.922,5.585,9.738,5.671c15.997,0.288,21.971-20.78,21.971-20.78
					s-1.432-1.31-3.781-3.134c-5.246-4.077-15.061-10.717-23.688-11.015C548.259,327.942,544.776,342.972,549.25,351.252z"/>
				<path style="fill:#A9463F;" d="M574.859,319.659c0,0,7.634-11.261-1.349-17.801c-1.995,2.094-2.542,3.233-2.542,3.233
					s5.803,5.261,1.666,14.737"/>
			</g>
			<path style="fill:#DF5B3F;" d="M549.25,351.252c1.811,3.344,4.922,5.585,9.738,5.671c15.997,0.288,21.971-20.78,21.971-20.78
				s-1.432-1.31-3.781-3.134C573.632,338.379,564.773,349.036,549.25,351.252z"/>
		</g>
		<g style="clip-path:url(#SVGID_00000180368442719936138420000010230217990046318986_);">
			<g>
				<path style="fill:#A9463F;" d="M17.527,238.208c0,0-7.005-1.411-4.63-7.573c4.66-12.092,28.904-7.813,33.352,0.533
					c3.07,5.76-1.41,9.749-7.653,9.949"/>
				<path style="fill:#EE824E;" d="M31.226,259.044c-2.825,1.418-6.013,1.467-9.338-0.765c-11.045-7.413-5.098-24.62-5.098-24.62
					s1.6-0.213,4.069-0.339c5.517-0.285,15.368-0.145,21.392,3.756C42.989,243.62,38.215,255.526,31.226,259.044z"/>
				<path style="fill:#A9463F;" d="M28.79,225.32c0,0,0.151-11.31,9.387-11.497c0.365,2.376,0.196,3.414,0.196,3.414
					s-6.46,0.827-8.146,9.257"/>
			</g>
			<path style="fill:#DF5B3F;" d="M31.226,259.044c-2.825,1.418-6.013,1.467-9.338-0.765c-11.045-7.413-5.098-24.62-5.098-24.62
				s1.6-0.213,4.069-0.339C20.722,238.668,21.695,250.149,31.226,259.044z"/>
		</g>
		<g style="clip-path:url(#SVGID_00000180368442719936138420000010230217990046318986_);">
			<g>
				<path style="fill:#A9463F;" d="M133.261,437.785c0,0-5.132,4.972-8.863-0.476c-7.323-10.691,9.942-28.243,19.339-27.178
					c6.486,0.735,7.234,6.687,3.86,11.944"/>
				<path style="fill:#EE824E;" d="M158.192,438.305c-0.432,3.132-2.198,5.786-5.922,7.261c-12.367,4.9-23.175-9.751-23.175-9.751
					s0.731-1.439,2.027-3.545c2.891-4.707,8.589-12.744,15.217-15.497C152.148,419.872,159.253,430.552,158.192,438.305z"/>
				<path style="fill:#A9463F;" d="M129.024,421.202c0,0-9.234-6.534-4.154-14.249c2.165,1.046,2.924,1.773,2.924,1.773
					s-2.979,5.791,3.011,11.957"/>
			</g>
			<path style="fill:#DF5B3F;" d="M158.192,438.305c-0.432,3.132-2.198,5.786-5.922,7.261c-12.367,4.9-23.175-9.751-23.175-9.751
				s0.731-1.439,2.027-3.545C135.451,435.413,145.462,441.118,158.192,438.305z"/>
		</g>
		<g style="clip-path:url(#SVGID_00000180368442719936138420000010230217990046318986_);">
			<path style="fill:#A9463F;" d="M128.902,84.869c0,0,15.878-15.815,31.126,0.949c16.967,18.655-11.731,47.956-44.213,68.627
				c-17.534-39.718-39.71-49.176-27.076-70.068C101.372,63.485,122.911,70.037,128.902,84.869z"/>
			<path style="fill:none;stroke:#793954;stroke-width:2;stroke-linecap:round;stroke-linejoin:round;stroke-miterlimit:10;" d="
				M118.433,147.627c0,0,27.341-65.692-3.104-99.688"/>
			
				<polyline style="fill:none;stroke:#793954;stroke-width:2;stroke-linecap:round;stroke-linejoin:round;stroke-miterlimit:10;" points="
				132.494,137.769 125.627,124.5 110.865,134.283 			"/>
			
				<polyline style="fill:none;stroke:#793954;stroke-width:2;stroke-linecap:round;stroke-linejoin:round;stroke-miterlimit:10;" points="
				140.607,128.224 128.466,108.952 105.66,120.954 			"/>
			
				<polyline style="fill:none;stroke:#793954;stroke-width:2;stroke-linecap:round;stroke-linejoin:round;stroke-miterlimit:10;" points="
				151.275,114.693 129.284,94.609 100.974,107.207 			"/>
			
				<polyline style="fill:none;stroke:#793954;stroke-width:2;stroke-linecap:round;stroke-linejoin:round;stroke-miterlimit:10;" points="
				94.943,94.973 129.245,86.089 158.299,99.828 			"/>
		</g>
		<g style="clip-path:url(#SVGID_00000180368442719936138420000010230217990046318986_);">
			<path style="fill:#FFA854;" d="M191.331,340.992c0,0-5.805-12.045,6.628-17.358c13.836-5.911,24.733,16,30.025,38.354
				c-25.819,2.108-35.491,12.755-44.793,1.545C173.89,352.322,181.799,341.465,191.331,340.992z"/>
			<path style="fill:none;stroke:#793954;stroke-width:2;stroke-linecap:round;stroke-linejoin:round;stroke-miterlimit:10;" d="
				M224.654,359.178c0,0-31.674-28.27-56.795-17.765"/>
			
				<polyline style="fill:none;stroke:#793954;stroke-width:2;stroke-linecap:round;stroke-linejoin:round;stroke-miterlimit:10;" points="
				221.851,349.323 213.028,350.595 215.652,360.831 			"/>
			
				<polyline style="fill:none;stroke:#793954;stroke-width:2;stroke-linecap:round;stroke-linejoin:round;stroke-miterlimit:10;" points="
				218.059,342.881 204.82,345.952 207.12,361.155 			"/>
			
				<polyline style="fill:none;stroke:#793954;stroke-width:2;stroke-linecap:round;stroke-linejoin:round;stroke-miterlimit:10;" points="
				212.521,334.22 196.896,342.683 198.455,361.106 			"/>
			
				<polyline style="fill:none;stroke:#793954;stroke-width:2;stroke-linecap:round;stroke-linejoin:round;stroke-miterlimit:10;" points="
				190.379,362.11 192.086,341.037 205.518,327.351 			"/>
		</g>
		<g style="clip-path:url(#SVGID_00000180368442719936138420000010230217990046318986_);">
			<path style="fill:#A9463F;" d="M630.038,393.29c0,0,3.269,16.676-13.726,19.213c-18.912,2.824-29.258-24.486-26.507-58.527
				c31.978-1.375,52.18,1.572,56.392,16.505C649.979,383.892,641.911,395.771,630.038,393.29z"/>
			<path style="fill:none;stroke:#793954;stroke-width:2;stroke-linecap:round;stroke-linejoin:round;stroke-miterlimit:10;" d="
				M594.907,360.224c0,0,29.864,44.936,64.128,40.09"/>
			
				<polyline style="fill:none;stroke:#793954;stroke-width:2;stroke-linecap:round;stroke-linejoin:round;stroke-miterlimit:10;" points="
				595.188,373.242 606.446,374.512 606.508,361.083 			"/>
			
				<polyline style="fill:none;stroke:#793954;stroke-width:2;stroke-linecap:round;stroke-linejoin:round;stroke-miterlimit:10;" points="
				597.781,382.38 615.046,382.858 617.102,363.425 			"/>
			
				<polyline style="fill:none;stroke:#793954;stroke-width:2;stroke-linecap:round;stroke-linejoin:round;stroke-miterlimit:10;" points="
				601.808,394.809 623.74,389.423 627.742,366.27 			"/>
		</g>
		<g style="clip-path:url(#SVGID_00000180368442719936138420000010230217990046318986_);">
			<path style="fill:none;stroke:#793954;stroke-width:2;stroke-linecap:round;stroke-linejoin:round;stroke-miterlimit:10;" d="
				M323.109,519.777c0,0,35.75-65.628,9.885-148.999"/>
			
				<line style="fill:none;stroke:#793954;stroke-width:2;stroke-linecap:round;stroke-linejoin:round;stroke-miterlimit:10;" x1="324.943" y1="376.04" x2="336.804" y2="386.108"/>
			<path style="fill:none;stroke:#793954;stroke-width:2;stroke-linecap:round;stroke-linejoin:round;stroke-miterlimit:10;" d="
				M335.523,378.34c0,0,7.095-4.707,7.43-13.587"/>
			<path style="fill:none;stroke:#793954;stroke-width:2;stroke-linecap:round;stroke-linejoin:round;stroke-miterlimit:10;" d="
				M340.653,400.817c0,0,12.619-8.913,12.957-22.091"/>
			<path style="fill:none;stroke:#793954;stroke-width:2;stroke-linecap:round;stroke-linejoin:round;stroke-miterlimit:10;" d="
				M342.158,426.717c0,0-18.021-1.303-22.831-15.467"/>
			<path style="fill:none;stroke:#793954;stroke-width:2;stroke-linecap:round;stroke-linejoin:round;stroke-miterlimit:10;" d="
				M342.817,447.336c0,0,32.149-11.493,33.867-56.503"/>
			<path style="fill:none;stroke:#793954;stroke-width:2;stroke-linecap:round;stroke-linejoin:round;stroke-miterlimit:10;" d="
				M363.712,430.117c0,0-6.734-8.777-5.697-23.133"/>
			<path style="fill:none;stroke:#793954;stroke-width:2;stroke-linecap:round;stroke-linejoin:round;stroke-miterlimit:10;" d="
				M372.669,416.641c0,0,10.102,0.423,14.15-13.101"/>
			<path style="fill:none;stroke:#793954;stroke-width:2;stroke-linecap:round;stroke-linejoin:round;stroke-miterlimit:10;" d="
				M336.922,477.921c0,0-16.35-15.92-14.279-40.333"/>
			<path style="fill:none;stroke:#793954;stroke-width:2;stroke-linecap:round;stroke-linejoin:round;stroke-miterlimit:10;" d="
				M335.078,490.683c0,0,18.198-1.141,25.506-25.79"/>
			<path style="fill:none;stroke:#793954;stroke-width:2;stroke-linecap:round;stroke-linejoin:round;stroke-miterlimit:10;" d="
				M354.137,477.63c0,0-5.925-11.482,0.129-23.018"/>
			<path style="fill:#DF5B3F;" d="M327.407,376.424c0.129-1.786-1.214-3.338-2.999-3.467c-1.786-0.129-3.338,1.214-3.467,2.999
				c-0.129,1.786,1.214,3.338,2.999,3.467C325.726,379.552,327.278,378.21,327.407,376.424z"/>
			<path style="fill:#DF5B3F;" d="M356.983,378.812c0.129-1.786-1.214-3.338-2.999-3.467c-1.786-0.129-3.338,1.214-3.467,2.999
				c-0.129,1.785,1.214,3.338,2.999,3.467C355.302,381.94,356.854,380.598,356.983,378.812z"/>
			<path style="fill:#DF5B3F;" d="M389.703,403.427c0.129-1.786-1.214-3.338-2.999-3.467c-1.786-0.129-3.338,1.214-3.467,2.999
				c-0.129,1.786,1.214,3.338,2.999,3.467C388.022,406.555,389.574,405.212,389.703,403.427z"/>
			<path style="fill:#DF5B3F;" d="M379.659,390.201c0.129-1.786-1.214-3.338-2.999-3.467c-1.786-0.129-3.338,1.214-3.467,2.999
				c-0.129,1.786,1.214,3.338,2.999,3.467C377.978,393.329,379.53,391.986,379.659,390.201z"/>
			<path style="fill:#DF5B3F;" d="M363.817,465.127c0.129-1.785-1.214-3.338-2.999-3.467c-1.785-0.129-3.338,1.214-3.467,2.999
				c-0.129,1.786,1.214,3.338,2.999,3.467C362.136,468.256,363.688,466.913,363.817,465.127z"/>
			<path style="fill:#DF5B3F;" d="M322.629,411.284c0.129-1.785-1.214-3.338-2.999-3.467c-1.786-0.129-3.338,1.214-3.467,2.999
				c-0.129,1.786,1.214,3.338,2.999,3.467C320.947,414.412,322.5,413.069,322.629,411.284z"/>
			<path style="fill:#DF5B3F;" d="M346.532,364.307c0.129-1.785-1.214-3.338-2.999-3.467c-1.785-0.129-3.338,1.214-3.467,2.999
				c-0.129,1.786,1.214,3.338,2.999,3.467C344.851,367.435,346.403,366.092,346.532,364.307z"/>
			<path style="fill:#DF5B3F;" d="M361.508,406.138c0.129-1.786-1.214-3.338-2.999-3.467c-1.785-0.129-3.338,1.214-3.467,2.999
				c-0.129,1.786,1.214,3.338,2.999,3.467C359.827,409.267,361.379,407.924,361.508,406.138z"/>
			<path style="fill:#DF5B3F;" d="M357.499,454.845c0.129-1.786-1.214-3.338-2.999-3.467c-1.785-0.129-3.338,1.214-3.467,2.999
				c-0.129,1.785,1.214,3.338,2.999,3.467C355.818,457.974,357.37,456.631,357.499,454.845z"/>
			<path style="fill:#DF5B3F;" d="M325.774,437.054c0.129-1.786-1.214-3.338-2.999-3.467c-1.785-0.129-3.338,1.214-3.467,2.999
				c-0.129,1.786,1.214,3.338,2.999,3.467C324.093,440.182,325.645,438.84,325.774,437.054z"/>
			<path style="fill:#DF5B3F;" d="M335.425,369.254c0.129-1.786-1.214-3.338-2.999-3.467c-1.786-0.129-3.338,1.214-3.467,2.999
				c-0.129,1.785,1.214,3.338,2.999,3.467C333.744,372.382,335.296,371.039,335.425,369.254z"/>
		</g>
		<g style="clip-path:url(#SVGID_00000180368442719936138420000010230217990046318986_);">
			<path style="fill:none;stroke:#793954;stroke-width:2;stroke-linecap:round;stroke-linejoin:round;stroke-miterlimit:10;" d="
				M767.137,291.867c0,0-65.804-52.819-163.614-40.703"/>
			
				<line style="fill:none;stroke:#793954;stroke-width:2;stroke-linecap:round;stroke-linejoin:round;stroke-miterlimit:10;" x1="607.765" y1="261.161" x2="621.32" y2="249.988"/>
			<path style="fill:none;stroke:#793954;stroke-width:2;stroke-linecap:round;stroke-linejoin:round;stroke-miterlimit:10;" d="
				M612.431,249.862c0,0-3.816-8.824-13.617-10.967"/>
			<path style="fill:none;stroke:#793954;stroke-width:2;stroke-linecap:round;stroke-linejoin:round;stroke-miterlimit:10;" d="
				M638.434,248.644c0,0-7.388-15.801-21.966-18.806"/>
			<path style="fill:none;stroke:#793954;stroke-width:2;stroke-linecap:round;stroke-linejoin:round;stroke-miterlimit:10;" d="
				M667.517,252.137c0,0-5.042,19.767-21.742,22.288"/>
			<path style="fill:none;stroke:#793954;stroke-width:2;stroke-linecap:round;stroke-linejoin:round;stroke-miterlimit:10;" d="
				M690.563,255.517c0,0-6.36-38.02-56.038-48.907"/>
			<path style="fill:none;stroke:#793954;stroke-width:2;stroke-linecap:round;stroke-linejoin:round;stroke-miterlimit:10;" d="
				M675.595,228.862c0,0-11.097,5.734-26.844,1.717"/>
			<path style="fill:none;stroke:#793954;stroke-width:2;stroke-linecap:round;stroke-linejoin:round;stroke-miterlimit:10;" d="
				M662.405,216.22c0,0,2.485-11.142-11.737-18.338"/>
			<path style="fill:none;stroke:#793954;stroke-width:2;stroke-linecap:round;stroke-linejoin:round;stroke-miterlimit:10;" d="
				M723.377,268.169c0,0-20.953,14.995-47.671,7.824"/>
			<path style="fill:none;stroke:#793954;stroke-width:2;stroke-linecap:round;stroke-linejoin:round;stroke-miterlimit:10;" d="
				M737.192,272.764c0,0,2.362-20.451-23.573-33.489"/>
			<path style="fill:none;stroke:#793954;stroke-width:2;stroke-linecap:round;stroke-linejoin:round;stroke-miterlimit:10;" d="
				M726.487,248.98c0,0-13.942,4.294-25.555-4.734"/>
			<path style="fill:#DF5B3F;" d="M608.683,258.5c-1.959-0.5-3.951,0.683-4.451,2.642c-0.5,1.959,0.683,3.951,2.642,4.451
				c1.959,0.5,3.951-0.683,4.451-2.642C611.825,260.992,610.642,258.999,608.683,258.5z"/>
			<path style="fill:#DF5B3F;" d="M617.236,226.107c-1.958-0.5-3.951,0.683-4.451,2.642c-0.5,1.959,0.683,3.951,2.642,4.451
				c1.959,0.5,3.951-0.683,4.451-2.642C620.377,228.599,619.195,226.606,617.236,226.107z"/>
			<path style="fill:#DF5B3F;" d="M651.117,194.654c-1.959-0.5-3.951,0.683-4.451,2.642c-0.5,1.959,0.683,3.951,2.642,4.451
				c1.959,0.499,3.951-0.683,4.451-2.642C654.258,197.147,653.075,195.154,651.117,194.654z"/>
			<path style="fill:#DF5B3F;" d="M634.416,203.178c-1.958-0.5-3.951,0.683-4.451,2.642c-0.5,1.959,0.683,3.951,2.642,4.451
				c1.959,0.499,3.951-0.683,4.451-2.642C637.557,205.67,636.374,203.678,634.416,203.178z"/>
			<path style="fill:#DF5B3F;" d="M714.523,235.728c-1.958-0.5-3.951,0.683-4.451,2.642c-0.5,1.959,0.683,3.951,2.642,4.451
				c1.959,0.5,3.951-0.683,4.451-2.642C717.664,238.22,716.482,236.227,714.523,235.728z"/>
			<path style="fill:#DF5B3F;" d="M646.471,270.763c-1.958-0.5-3.951,0.683-4.451,2.642c-0.5,1.959,0.683,3.951,2.642,4.451
				c1.959,0.5,3.951-0.683,4.451-2.642C649.612,273.255,648.429,271.262,646.471,270.763z"/>
			<path style="fill:#DF5B3F;" d="M599.032,234.828c-1.958-0.5-3.951,0.683-4.451,2.642c-0.5,1.959,0.683,3.951,2.642,4.451
				c1.959,0.5,3.951-0.683,4.451-2.642C602.173,237.321,600.99,235.328,599.032,234.828z"/>
			<path style="fill:#DF5B3F;" d="M648.507,226.529c-1.959-0.5-3.951,0.683-4.451,2.642c-0.5,1.958,0.683,3.951,2.642,4.451
				c1.958,0.5,3.951-0.683,4.451-2.642C651.648,229.021,650.465,227.029,648.507,226.529z"/>
			<path style="fill:#DF5B3F;" d="M701.836,240.699c-1.959-0.5-3.951,0.683-4.451,2.642c-0.499,1.959,0.683,3.951,2.642,4.451
				c1.959,0.5,3.951-0.683,4.451-2.642C704.978,243.191,703.795,241.199,701.836,240.699z"/>
			<path style="fill:#DF5B3F;" d="M675.737,272.407c-1.959-0.5-3.951,0.683-4.451,2.642c-0.5,1.958,0.683,3.951,2.642,4.451
				c1.958,0.5,3.951-0.683,4.451-2.642C678.878,274.899,677.696,272.907,675.737,272.407z"/>
			<path style="fill:#DF5B3F;" d="M602.314,248.159c-1.959-0.5-3.951,0.683-4.451,2.642c-0.5,1.959,0.683,3.951,2.642,4.451
				c1.958,0.499,3.951-0.683,4.451-2.642C605.455,250.651,604.273,248.658,602.314,248.159z"/>
		</g>
		<g style="clip-path:url(#SVGID_00000180368442719936138420000010230217990046318986_);">
			<path style="fill:none;stroke:#793954;stroke-width:2;stroke-linecap:round;stroke-linejoin:round;stroke-miterlimit:10;" d="
				M344.081-64.271c0,0-59.248,52.497-63.511,144.859"/>
			
				<line style="fill:none;stroke:#793954;stroke-width:2;stroke-linecap:round;stroke-linejoin:round;stroke-miterlimit:10;" x1="290.485" y1="78.246" x2="282.297" y2="63.945"/>
			<path style="fill:none;stroke:#793954;stroke-width:2;stroke-linecap:round;stroke-linejoin:round;stroke-miterlimit:10;" d="
				M280.775,72.145c0,0-8.763,2.133-12.295,10.858"/>
			<path style="fill:none;stroke:#793954;stroke-width:2;stroke-linecap:round;stroke-linejoin:round;stroke-miterlimit:10;" d="
				M283.76,47.907c0,0-15.78,4.333-20.863,17.338"/>
			<path style="fill:none;stroke:#793954;stroke-width:2;stroke-linecap:round;stroke-linejoin:round;stroke-miterlimit:10;" d="
				M291.589,21.565c0,0,17.482,7.788,17.171,23.63"/>
			<path style="fill:none;stroke:#793954;stroke-width:2;stroke-linecap:round;stroke-linejoin:round;stroke-miterlimit:10;" d="
				M298.359,0.789c0,0-36.163-0.131-54.086,44.085"/>
			<path style="fill:none;stroke:#793954;stroke-width:2;stroke-linecap:round;stroke-linejoin:round;stroke-miterlimit:10;" d="
				M271.344,10.415c0,0,3.547,11.168-2.657,25.094"/>
			<path style="fill:none;stroke:#793954;stroke-width:2;stroke-linecap:round;stroke-linejoin:round;stroke-miterlimit:10;" d="
				M257.568,20.613c0,0-9.91-4.06-18.813,7.954"/>
			<path style="fill:none;stroke:#793954;stroke-width:2;stroke-linecap:round;stroke-linejoin:round;stroke-miterlimit:10;" d="
				M315.247-27.553c0,0,10.553,21.747-0.304,45.319"/>
			<path style="fill:none;stroke:#793954;stroke-width:2;stroke-linecap:round;stroke-linejoin:round;stroke-miterlimit:10;" d="
				M321.681-39.602c0,0-18.538-5.418-34.696,16.503"/>
			<path style="fill:none;stroke:#793954;stroke-width:2;stroke-linecap:round;stroke-linejoin:round;stroke-miterlimit:10;" d="
				M297.995-33.464c0,0,1.766,13.571-8.419,22.883"/>
			<path style="fill:#DF5B3F;" d="M288.169,76.976c-0.772,1.732,0.007,3.762,1.739,4.534c1.732,0.772,3.762-0.007,4.534-1.739
				s-0.007-3.762-1.739-4.534C290.971,74.465,288.941,75.244,288.169,76.976z"/>
			<path style="fill:#DF5B3F;" d="M259.568,63.945c-0.772,1.732,0.007,3.762,1.739,4.534c1.732,0.772,3.762-0.007,4.534-1.739
				c0.772-1.732-0.007-3.762-1.739-4.533C262.369,61.434,260.34,62.213,259.568,63.945z"/>
			<path style="fill:#DF5B3F;" d="M235.841,27.641c-0.772,1.732,0.007,3.762,1.739,4.534c1.732,0.772,3.762-0.007,4.534-1.739
				c0.772-1.732-0.007-3.762-1.739-4.533S236.613,25.909,235.841,27.641z"/>
			<path style="fill:#DF5B3F;" d="M241.082,44.433c-0.772,1.732,0.007,3.762,1.739,4.534c1.732,0.772,3.762-0.007,4.533-1.739
				c0.772-1.732-0.007-3.762-1.739-4.533C243.883,41.922,241.854,42.701,241.082,44.433z"/>
			<path style="fill:#DF5B3F;" d="M283.849-24.496c-0.772,1.732,0.007,3.762,1.739,4.534c1.732,0.772,3.762-0.007,4.533-1.739
				c0.772-1.732-0.007-3.762-1.739-4.534C286.65-27.007,284.62-26.228,283.849-24.496z"/>
			<path style="fill:#DF5B3F;" d="M305.484,43.972c-0.772,1.732,0.007,3.762,1.739,4.534c1.732,0.772,3.762-0.007,4.534-1.739
				c0.772-1.732-0.007-3.762-1.739-4.533C308.286,41.462,306.256,42.24,305.484,43.972z"/>
			<path style="fill:#DF5B3F;" d="M264.754,82.157c-0.772,1.732,0.007,3.762,1.739,4.534c1.732,0.772,3.762-0.007,4.534-1.739
				c0.772-1.732-0.007-3.762-1.739-4.533C267.556,79.647,265.526,80.425,264.754,82.157z"/>
			<path style="fill:#DF5B3F;" d="M264.903,35.095c-0.772,1.732,0.007,3.762,1.739,4.534c1.732,0.772,3.762-0.007,4.533-1.739
				c0.772-1.732-0.007-3.762-1.739-4.534C267.705,32.584,265.675,33.363,264.903,35.095z"/>
			<path style="fill:#DF5B3F;" d="M286.44-11.978c-0.772,1.732,0.007,3.762,1.739,4.533c1.732,0.772,3.762-0.007,4.534-1.739
				s-0.007-3.762-1.739-4.533C289.241-14.489,287.211-13.711,286.44-11.978z"/>
			<path style="fill:#DF5B3F;" d="M311.633,17.17c-0.772,1.732,0.007,3.762,1.739,4.533c1.732,0.772,3.762-0.007,4.534-1.739
				c0.772-1.732-0.007-3.762-1.739-4.533C314.434,14.659,312.405,15.438,311.633,17.17z"/>
			<path style="fill:#DF5B3F;" d="M277.6,81.23c-0.772,1.732,0.007,3.762,1.739,4.534c1.732,0.772,3.762-0.007,4.533-1.739
				c0.772-1.732-0.007-3.762-1.739-4.533C280.401,78.719,278.372,79.498,277.6,81.23z"/>
		</g>
		<g style="clip-path:url(#SVGID_00000180368442719936138420000010230217990046318986_);">
			<path style="fill:#EE824E;" d="M679.671,121.191c-18.247,26.094-37.448,9.782-37.448,9.782S657.681,107.743,679.671,121.191z"/>
			<path style="fill:#DF5B3F;" d="M679.671,121.191c-17.786-0.884-37.448,9.782-37.448,9.782S657.681,107.743,679.671,121.191z"/>
		</g>
		<g style="clip-path:url(#SVGID_00000180368442719936138420000010230217990046318986_);">
			<path style="fill:#EE824E;" d="M141.952,180.716c-18.247,26.094-37.448,9.782-37.448,9.782S119.962,167.268,141.952,180.716z"/>
			<path style="fill:#DF5B3F;" d="M141.952,180.716c-17.786-0.884-37.448,9.782-37.448,9.782S119.962,167.268,141.952,180.716z"/>
		</g>
		<g style="clip-path:url(#SVGID_00000180368442719936138420000010230217990046318986_);">
			<path style="fill:#EE824E;" d="M127.409,255.231c-31.78,1.977-30.978-23.204-30.978-23.204S124.234,229.65,127.409,255.231z"/>
			<path style="fill:#DF5B3F;" d="M127.409,255.231c-10.387-14.465-30.978-23.204-30.978-23.204S124.234,229.65,127.409,255.231z"/>
		</g>
		<g style="clip-path:url(#SVGID_00000180368442719936138420000010230217990046318986_);">
			<path style="fill:#EE824E;" d="M536.682,342.141c-31.793,1.741-30.804-23.434-30.804-23.434S533.698,316.538,536.682,342.141z"/>
			<path style="fill:#DF5B3F;" d="M536.682,342.141c-10.279-14.542-30.804-23.434-30.804-23.434S533.698,316.538,536.682,342.141z"
				/>
		</g>
		<g style="clip-path:url(#SVGID_00000180368442719936138420000010230217990046318986_);">
			<path style="fill:#EE824E;" d="M510.242,43.485c-31.817-1.234-28.483-26.206-28.483-26.206S509.66,17.715,510.242,43.485z"/>
			<path style="fill:#DF5B3F;" d="M510.296,43.425c-8.941-15.4-28.592-26.086-28.592-26.086S509.606,17.658,510.296,43.425z"/>
		</g>
		<g style="clip-path:url(#SVGID_00000180368442719936138420000010230217990046318986_);">
			<path style="fill:#EE824E;" d="M183.15,376.346c-1.127,31.821-26.11,28.571-26.11,28.571S157.382,377.015,183.15,376.346z"/>
			<path style="fill:#DF5B3F;" d="M183.15,376.346c-15.408,8.929-26.11,28.571-26.11,28.571S157.382,377.015,183.15,376.346z"/>
		</g>
		<path style="clip-path:url(#SVGID_00000180368442719936138420000010230217990046318986_);fill:#FFD9B4;" d="M455.908,401.819
			c0,3.133-2.539,5.672-5.672,5.672c-3.133,0-5.672-2.539-5.672-5.672c0-3.133,2.539-5.672,5.672-5.672
			C453.368,396.147,455.908,398.686,455.908,401.819z"/>
		
			<circle style="clip-path:url(#SVGID_00000180368442719936138420000010230217990046318986_);fill:#FFD9B4;" cx="422.302" cy="386.854" r="8.319"/>
		<path style="clip-path:url(#SVGID_00000180368442719936138420000010230217990046318986_);fill:#FFD9B4;" d="M416.252,410.298
			c0,1.671-1.354,3.025-3.025,3.025c-1.671,0-3.025-1.354-3.025-3.025c0-1.671,1.354-3.025,3.025-3.025
			C414.898,407.273,416.252,408.628,416.252,410.298z"/>
		<path style="clip-path:url(#SVGID_00000180368442719936138420000010230217990046318986_);fill:#FFD9B4;" d="M429.865,356.982
			c0,1.462-1.185,2.647-2.647,2.647c-1.462,0-2.647-1.185-2.647-2.647c0-1.462,1.185-2.647,2.647-2.647
			C428.68,354.335,429.865,355.52,429.865,356.982z"/>
		
			<circle style="clip-path:url(#SVGID_00000180368442719936138420000010230217990046318986_);fill:#FFD9B4;" cx="158.93" cy="217.258" r="8.48"/>
		
			<circle style="clip-path:url(#SVGID_00000180368442719936138420000010230217990046318986_);fill:#FFD9B4;" cx="153.582" cy="263.452" r="4.489"/>
		
			<circle style="clip-path:url(#SVGID_00000180368442719936138420000010230217990046318986_);fill:#FFD9B4;" cx="173.894" cy="274.123" r="3.99"/>
		
			<circle style="clip-path:url(#SVGID_00000180368442719936138420000010230217990046318986_);fill:#FFD9B4;" cx="541.019" cy="77.591" r="3.99"/>
		<path style="clip-path:url(#SVGID_00000180368442719936138420000010230217990046318986_);fill:#FFD9B4;" d="M325.173,95.852
			c0,2.204-1.787,3.99-3.99,3.99c-2.204,0-3.991-1.787-3.991-3.99c0-2.204,1.787-3.991,3.991-3.991
			C323.387,91.861,325.173,93.648,325.173,95.852z"/>
		
			<circle style="clip-path:url(#SVGID_00000180368442719936138420000010230217990046318986_);fill:#FFD9B4;" cx="531.043" cy="34.693" r="3.99"/>
		
			<ellipse transform="matrix(0.7071 -0.7071 0.7071 0.7071 78.1694 262.095)" style="clip-path:url(#SVGID_00000180368442719936138420000010230217990046318986_);fill:#FFD9B4;" cx="355.461" cy="36.689" rx="7.482" ry="7.482"/>
		<path style="clip-path:url(#SVGID_00000180368442719936138420000010230217990046318986_);fill:#FFD9B4;" d="M514.582,58.636
			c0,3.581-2.903,6.485-6.485,6.485s-6.484-2.903-6.484-6.485c0-3.581,2.903-6.485,6.484-6.485S514.582,55.055,514.582,58.636z"/>
		<path style="clip-path:url(#SVGID_00000180368442719936138420000010230217990046318986_);fill:#FFD9B4;" d="M712.144,76.072
			c0,2.378-1.928,4.305-4.305,4.305c-2.378,0-4.305-1.928-4.305-4.305s1.928-4.305,4.305-4.305
			C710.216,71.767,712.144,73.694,712.144,76.072z"/>
		
			<circle style="clip-path:url(#SVGID_00000180368442719936138420000010230217990046318986_);fill:#FFD9B4;" cx="697.287" cy="114.807" r="3.99"/>
		<path style="clip-path:url(#SVGID_00000180368442719936138420000010230217990046318986_);fill:#FFD9B4;" d="M738.19,73.904
			c0,2.755-2.233,4.988-4.988,4.988c-2.755,0-4.988-2.233-4.988-4.988c0-2.755,2.233-4.988,4.988-4.988
			C735.956,68.916,738.19,71.149,738.19,73.904z"/>
		
			<circle style="clip-path:url(#SVGID_00000180368442719936138420000010230217990046318986_);fill:#FFD9B4;" cx="136.623" cy="462.977" r="3.99"/>
		<path style="clip-path:url(#SVGID_00000180368442719936138420000010230217990046318986_);fill:#FFD9B4;" d="M287.264,460.982
			c0,3.306-2.68,5.986-5.986,5.986c-3.306,0-5.986-2.68-5.986-5.986c0-3.306,2.68-5.986,5.986-5.986
			C284.584,454.996,287.264,457.676,287.264,460.982z"/>
		
			<circle style="clip-path:url(#SVGID_00000180368442719936138420000010230217990046318986_);fill:#FFD9B4;" cx="299.734" cy="486.421" r="4.489"/>
		<path style="clip-path:url(#SVGID_00000180368442719936138420000010230217990046318986_);fill:#FFD9B4;" d="M313.202,461.481
			c0,1.928-1.563,3.492-3.492,3.492c-1.928,0-3.492-1.563-3.492-3.492s1.563-3.492,3.492-3.492
			C311.639,457.989,313.202,459.552,313.202,461.481z"/>
	</g>
</g>
</svg>
